<?xml version="1.0" encoding="UTF-8" standalone="no"?>
<!DOCTYPE svg PUBLIC "-//W3C//DTD SVG 1.1//EN" "http://www.w3.org/Graphics/SVG/1.1/DTD/svg11.dtd">
<svg width="100%" height="100%" viewBox="0 0 505 112" version="1.1" xmlns="http://www.w3.org/2000/svg" xmlns:xlink="http://www.w3.org/1999/xlink" xml:space="preserve" style="fill-rule:evenodd;clip-rule:evenodd;stroke-linejoin:round;stroke-miterlimit:1.41421;">
    <g transform="matrix(1,0,0,1,-387.657,-344.434)">
        <g transform="matrix(1,0,0,1,26.6568,190.434)">
            <clipPath id="_clip1">
                <rect x="361" y="154" width="504.686" height="111.131"/>
            </clipPath>
            <g clip-path="url(#_clip1)">
                <g transform="matrix(0.746303,0,0,0.746303,64.3912,-45.3307)">
                    <g transform="matrix(5.61862,-1.40413e-31,-9.36089e-32,3.86122,-1123.98,-1324.83)">
                        <path d="M341.421,444.777L341.421,446.973L339.225,446.973L339.225,448.653L341.421,448.653L341.421,450.849L343.101,450.849L343.101,448.653L345.297,448.653L345.297,446.973L343.101,446.973L343.101,444.777L341.421,444.777Z" style="fill:rgb(250,72,28);fill-rule:nonzero;"/>
                    </g>
                    <g transform="matrix(11.8373,-2.95823e-31,-1.97215e-31,8.13482,-3210.8,-3233.55)">
                        <path d="M341.481,442.353L343.089,442.353L343.089,448.634L340.857,448.634L340.857,445.065L339.249,445.065L339.249,443.673C339.593,443.673 339.889,443.651 340.137,443.607C340.385,443.563 340.597,443.491 340.773,443.391C340.949,443.291 341.093,443.155 341.205,442.983C341.316,442.813 341.407,442.607 341.481,442.353Z" style="fill:rgb(250,72,28);"/>
                    </g>
                    <g transform="matrix(11.8373,-2.95823e-31,-1.97215e-31,8.13482,-3222.8,-3233.55)">
                        <path d="M345.128,448.634C345.032,448.107 344.985,447.458 344.985,446.685C344.985,445.829 345.043,445.121 345.159,444.561C345.275,444.001 345.451,443.557 345.687,443.229C345.923,442.901 346.223,442.673 346.587,442.545C346.951,442.417 347.381,442.353 347.877,442.353C348.373,442.353 348.803,442.417 349.167,442.545C349.531,442.673 349.831,442.901 350.067,443.229C350.303,443.557 350.479,444.001 350.595,444.561C350.711,445.121 350.769,445.829 350.769,446.685C350.769,447.458 350.723,448.107 350.626,448.634L348.516,448.634C348.531,448.477 348.537,448.294 348.537,448.089L348.537,445.281C348.537,444.681 348.485,444.275 348.381,444.063C348.277,443.851 348.109,443.745 347.877,443.745C347.645,443.745 347.477,443.851 347.373,444.063C347.269,444.275 347.217,444.681 347.217,445.281L347.217,448.089C347.217,448.294 347.223,448.477 347.238,448.634L345.128,448.634Z" style="fill:rgb(250,72,28);"/>
                    </g>
                    <g transform="matrix(11.8373,-2.95823e-31,-1.97215e-31,8.13482,-3222.8,-3233.55)">
                        <path d="M351.224,448.634C351.128,448.107 351.081,447.458 351.081,446.685C351.081,445.829 351.139,445.121 351.255,444.561C351.371,444.001 351.547,443.557 351.783,443.229C352.019,442.901 352.319,442.673 352.683,442.545C353.047,442.417 353.477,442.353 353.973,442.353C354.469,442.353 354.899,442.417 355.263,442.545C355.627,442.673 355.927,442.901 356.163,443.229C356.399,443.557 356.575,444.001 356.691,444.561C356.807,445.121 356.865,445.829 356.865,446.685C356.865,447.458 356.819,448.107 356.722,448.634L354.612,448.634C354.627,448.477 354.633,448.294 354.633,448.089L354.633,445.281C354.633,444.681 354.581,444.275 354.477,444.063C354.373,443.851 354.205,443.745 353.973,443.745C353.741,443.745 353.573,443.851 353.469,444.063C353.365,444.275 353.313,444.681 353.313,445.281L353.313,448.089C353.313,448.294 353.319,448.477 353.334,448.634L351.224,448.634Z" style="fill:rgb(250,72,28);"/>
                    </g>
                    <g transform="matrix(11.8373,-2.95823e-31,-1.97215e-31,8.13482,-3222.8,-3233.55)">
                        <path d="M357.32,448.634C357.224,448.107 357.177,447.458 357.177,446.685C357.177,445.829 357.235,445.121 357.351,444.561C357.467,444.001 357.643,443.557 357.879,443.229C358.115,442.901 358.415,442.673 358.779,442.545C359.143,442.417 359.573,442.353 360.069,442.353C360.565,442.353 360.995,442.417 361.359,442.545C361.723,442.673 362.023,442.901 362.259,443.229C362.495,443.557 362.671,444.001 362.787,444.561C362.903,445.121 362.961,445.829 362.961,446.685C362.961,447.458 362.915,448.107 362.818,448.634L360.708,448.634C360.723,448.477 360.729,448.294 360.729,448.089L360.729,445.281C360.729,444.681 360.677,444.275 360.573,444.063C360.469,443.851 360.301,443.745 360.069,443.745C359.837,443.745 359.669,443.851 359.565,444.063C359.461,444.275 359.409,444.681 359.409,445.281L359.409,448.089C359.409,448.294 359.415,448.477 359.43,448.634L357.32,448.634Z" style="fill:rgb(250,72,28);"/>
                    </g>
                </g>
                <g>
                    <g id="path6" transform="matrix(1,-6.12323e-17,6.12323e-17,1,360.326,154)">
                        <path d="M187.56,0L221.21,0C221.24,4.98 221.25,9.96 221.19,14.95C227.86,15.06 234.54,14.97 241.22,15C241.23,22.07 241.23,29.14 241.22,36.21C234.55,36.25 227.88,36.2 221.22,36.25C221.16,51.5 221.29,66.75 221.41,82C213.62,82.43 205.69,83.33 197.98,81.66C192.58,80.65 188.21,75.67 188.14,70.13C187.4,58.86 187.57,47.55 187.59,36.25C182.99,36.22 178.39,36.22 173.79,36.22C173.76,29.15 173.77,22.08 173.78,15C178.4,15 183.02,15.07 187.64,14.89C187.52,9.93 187.57,4.96 187.56,0L187.56,0Z" style="fill:rgb(250,72,28);fill-rule:nonzero;"/>
                    </g>
                    <g id="path8" transform="matrix(1,-6.12323e-17,6.12323e-17,1,360.326,154)">
                        <path d="M39.91,13.89C53.19,12.39 67.41,13.02 79.41,19.44C85.96,22.7 91.4,29.31 91.01,36.95C90.81,52.04 91.34,67.12 91.22,82.21C80,82.24 68.79,82.22 57.58,82.22C57.56,75.89 57.54,69.55 57.6,63.21C52.41,64.6 47.18,66.02 42.3,68.28C39.42,69.82 36.2,72.39 36.63,76.05C37.19,78.47 38.98,80.29 40.45,82.19C29.96,82.28 19.48,82.19 9,82.24C5.1,82.7 2.34,79.05 1.16,75.78C0.21,70.75 0.44,64.99 3.79,60.83C8.97,53.83 18.07,51.85 26.11,50.2C31.97,49.71 37.7,48.33 43.53,47.62C47.37,47.16 51.19,46.41 54.86,45.16C57.53,44.1 58.2,40.59 56.83,38.27C55.74,36.11 53.18,35.31 50.97,34.86C46.89,34.25 42.32,34.41 38.83,36.86C36.9,38.29 36.47,40.79 36.01,42.98C25.26,43.01 14.51,43 3.77,42.99C4.8,35.44 8.22,27.98 14.27,23.16C21.39,17.1 30.89,15.08 39.91,13.89L39.91,13.89Z" style="fill:rgb(250,72,28);fill-rule:nonzero;"/>
                    </g>
                    <g id="path10" transform="matrix(1,-6.12323e-17,6.12323e-17,1,360.326,154)">
                        <path d="M140.18,22.95C145.22,14.1 157.1,11.65 166.19,15.03C166.27,22.1 166.22,29.16 166.22,36.22C160.62,36.37 154.78,35.62 149.42,37.66C145.02,39.5 142.5,44.25 142.48,48.89C142.35,60 142.51,71.12 142.4,82.23C131.03,82.12 119.65,82.44 108.28,82.07C108.41,59.82 108.33,37.56 108.32,15.31C118.78,15.35 129.24,15.33 139.7,15.32C139.63,17.87 139.43,20.48 140.18,22.95L140.18,22.95Z" style="fill:rgb(250,72,28);fill-rule:nonzero;"/>
                    </g>
                    <g id="path12" transform="matrix(1,-6.12323e-17,6.12323e-17,1,360.326,154)">
                        <path d="M273.41,16.66C286.58,12.54 301.19,12.17 314.27,16.84C321.89,19.3 328.69,24.2 333.27,30.79C340.23,40.69 341.51,53.46 340.2,65.21C320.48,65.24 300.75,65.24 281.03,65.21C280.97,70.8 281.01,76.4 281,82C272.64,81.91 264.27,82.18 255.93,81.88C253.77,80.26 252.66,77.7 251.4,75.41C245.75,65.18 245.01,52.59 248.33,41.49C251.57,29.55 261.72,20.19 273.41,16.66M287.61,35.53C282.51,37.2 279.69,42.63 279.93,47.8C289.17,47.91 298.39,47.57 307.62,47.57C306.88,44.56 306.42,41.28 304.21,38.92C300.33,34 293.14,33.93 287.61,35.53L287.61,35.53Z" style="fill:rgb(250,72,28);fill-rule:nonzero;"/>
                    </g>
                </g>
            </g>
        </g>
    </g>
</svg>
